<svg xmlns="http://www.w3.org/2000/svg" width="245.815" height="196.568" viewBox="0 0 245.815 196.568"><defs><style>.a{fill:#6e8f60;}.a,.b,.c{fill-rule:evenodd;}.b{fill:#f19095;}.c{fill:#a73e37;}.d{fill:none;stroke:#63945f;stroke-linejoin:round;stroke-width:0.75px;}</style></defs><g transform="translate(65.164 176.582) rotate(-60)"><path class="a" d="M86.588-10.886a8.636,8.636,0,0,0-2.2-.137,44.989,44.989,0,0,0-5.378.063A53.528,53.528,0,0,0,66.691-8.774c-3.453,1.114-6.6,3.633-9.442,5.842s-5.851,4.2-8.544,6.6c-3.659,3.254-7.029,6.778-10.922,9.749-.486.372-1.07.666-1.516,1.085a14.306,14.306,0,0,1-1.216,1.232,3.194,3.194,0,0,1-1.515.869c-.036.076-.051.159-1.277.481.675.145.968-.159,1.548-.481a69.675,69.675,0,0,1,6.6-2.873c7.177-3.068,14.178-6.443,21.133-9.99,5.9-3,11.512-6.5,17.4-9.493a45.443,45.443,0,0,0,6.01-3.462C85.316-9.476,86.8-10.3,86.588-10.886Z" transform="translate(54.376 110.08)"/><path class="a" d="M14.369-38a.493.493,0,0,0-.24.058,13.1,13.1,0,0,0,.174,3.4,69.663,69.663,0,0,0,1,8.231A84.171,84.171,0,0,0,20.683-7.772c2.26,5.114,6.559,9.5,10.347,13.455,3.8,3.982,7.3,8.268,11.344,11.972,5.486,5.051,11.344,9.609,16.462,15.074a26.244,26.244,0,0,0,1.881,2.122c.7.613,1.4.959,2.055,1.656.547.571,1.442,1.357,1.544,2.2.138.016.256.047.956,1.844.1-1.043-.409-1.446-.987-2.279-2.091-2.939-3.655-6.46-5.419-9.625C53.044,18.157,46.787,7.993,40.3-2.046c-5.5-8.53-11.718-16.541-17.188-25.065A67.461,67.461,0,0,0,16.9-35.729C16.5-36.19,15.213-38,14.369-38Z" transform="translate(23.271 64.074)"/><path class="b" d="M.435-30.139ZM13.4-43.555C10.157-40.579,2.38-31.87.736-30.362c-.177.162-.279.238-.3.223h0C12.062-20.3,27.952-15.467,41.381-9.5Q59.494-1.491,76.949,7.9c3.787,2.029,8.208,4.1,10.118,8.012a7.692,7.692,0,0,1,.617,1.657c3.16-5.981,6.44-11.151,11.3-15.608.961-.882,1.983-1.739,3.079-2.563,6.517-4.932,13.951-8.511,21.131-12.425a242.4,242.4,0,0,0,22.031-13.621c2.22-1.549,8.8-5.131,12.51-8.535a7.9,7.9,0,0,0,2.554-3.519c.276-1.265-1.71-2.543-2.469-3.075-5.3-3.719-21.863-30.372-28.489-26.307a111.141,111.141,0,0,1-10.89,6.027c-6.486,3.016.426-10.26-1.206-12.431-9.837.172-19.726-.658-29.645-.466-2.976.056-10.4-1.361-13.033.185a3.1,3.1,0,0,0-.56.414c-2.678,2.458-.48,8.782-3.147,11.519l-.093.086c-1.952,1.792-3.959-1.852-5.547-3.287-1.958-1.809-5.066-4.93-7.7-4.077-2.222.72-4.985,3.165-6.938,4.415q-4.851,3.015-9.666,6.051c-2.916,1.835-5.8,4.214-9.05,5.422-1.029.375-5.271,1.475-6.835,2.911a1.577,1.577,0,0,0-.579.984c-.063.808,4.1,4.464,4.868,5.166a52.732,52.732,0,0,1,6.519,7.438c-6.168-.015-15.225-9.235-21.183-6.795A5.979,5.979,0,0,0,13.4-43.555Z" transform="translate(0)"/><path class="c" d="M4.9-59.511l-.3,1.151c23.3,6.023,46.538,18.717,69.045,37.717l.745-.892C51.752-40.654,28.356-53.415,4.9-59.511Z" transform="translate(7.127 27.315)"/><path class="c" d="M15.243-66A292.518,292.518,0,0,1,35.82-40.9c6.939,9.492,13.721,19.264,20.19,29.061l.98-.665C50.506-22.277,43.7-32.088,36.778-41.6A292.607,292.607,0,0,0,16.769-66.08l-.639-.7Z" transform="translate(25.304 14.899)"/><path class="c" d="M22.5-70.015l-.787.876c3.223,2.862,5.02,7.1,6.734,11.2.517,1.243,1.033,2.5,1.6,3.7,2.754,5.877,5.37,11.908,7.794,17.916,2.077,5.179,4.075,10.457,5.88,15.733.366,1.019.688,2.315,1.034,3.678.926,3.687,1.982,7.851,4.293,9.878l.773-.89c-2.053-1.785-3.061-5.749-3.929-9.254-.359-1.406-.674-2.734-1.057-3.8C43-26.262,41.009-31.573,38.933-36.78c-2.424-6.009-5.062-12.055-7.82-17.965-.553-1.164-1.053-2.359-1.592-3.636C27.746-62.6,25.926-66.975,22.5-70.015Z" transform="translate(36.365 9.366)"/><path class="c" d="M32.828-70.9l-.079.967a94.751,94.751,0,0,0,.819,17.052A116.636,116.636,0,0,1,34.52-39.7c-.006,5.744-.18,11.67-.369,17.392-.133,4.207-.269,8.57-.329,12.728,0,.424,0,.811.012,1.254A16.188,16.188,0,0,1,33.5-4.24c-.05.172-.137.343-.192.51a3.05,3.05,0,0,0-.333,1.272l1.151-.017a2.485,2.485,0,0,1,.241-.791,5.583,5.583,0,0,0,.264-.658,16.094,16.094,0,0,0,.364-4.419c-.011-.406.007-.81,0-1.2.052-4.168.192-8.535.33-12.738.166-5.737.358-11.643.37-17.42a119.63,119.63,0,0,0-.965-13.321A95.556,95.556,0,0,1,33.89-69.5l.39-.2a2.1,2.1,0,0,0-.63-.687Z" transform="translate(54.988 7.857)"/><path class="c" d="M35.316-25.64l-.064,1.171c2.19.132,4.254-1.076,6.2-2.863a50.56,50.56,0,0,0,5.294-6.1A40.545,40.545,0,0,1,50.5-37.816c.1-.09.2-.18.3-.265,5.707-4.939,11.714-9.639,17.84-14.032C74.2-56.1,80.192-59.675,86.466-58.954l.13-1.168c-6.669-.757-12.883,2.939-18.633,7.042-6.16,4.415-12.2,9.151-17.938,14.122-.073.058-.142.121-.215.189a40.427,40.427,0,0,0-3.982,4.622,49.728,49.728,0,0,1-5.161,5.957C38.92-26.588,37.121-25.525,35.316-25.64Z" transform="translate(59.494 26.102)"/><path class="c" d="M54.747-56.143a56.8,56.8,0,0,0-5.321,5.606c-5.864,7.062-10.075,15.156-13.41,22.157a2.523,2.523,0,0,0-.095,2.093,1.132,1.132,0,0,0,.918.567l.1-1.136a1.476,1.476,0,0,1,.134-1.026c3.322-6.917,7.469-14.924,13.262-21.9a56.119,56.119,0,0,1,5.237-5.52,43,43,0,0,1,15.137-9.247l-.358-1.109A44.1,44.1,0,0,0,54.747-56.143Z" transform="translate(60.313 16.82)"/><path class="a" d="M83.949-47a.493.493,0,0,1,.24.058,13.1,13.1,0,0,1-.174,3.4,69.666,69.666,0,0,1-1,8.231,84.171,84.171,0,0,1-5.383,18.542c-2.26,5.114-6.559,9.5-10.347,13.455-3.8,3.982-7.3,8.268-11.344,11.972C50.458,13.705,44.6,18.263,39.482,23.728A26.241,26.241,0,0,1,37.6,25.85c-.7.613-1.4.959-2.055,1.656C35,28.077,34.1,28.862,34,29.7c-.138.016-.256.047-.956,1.844-.1-1.043.409-1.446.987-2.279,2.091-2.939,3.655-6.46,5.419-9.625C45.274,9.157,51.532-1.007,58.014-11.046c5.5-8.53,11.718-16.541,17.188-25.065a67.463,67.463,0,0,1,6.217-8.619C81.822-45.19,83.106-47,83.949-47Z" transform="translate(55.703 48.695)"/><g transform="translate(87.291 13.882)"><path class="d" d="M0,0C14.494,36.474-6.805,76.568,3.54,113.767"/></g></g></svg>