<svg xmlns="http://www.w3.org/2000/svg" width="144.7" height="223.001" viewBox="0 0 144.7 223.001"><defs><style>.a{fill:#6e8f60;}.a,.b,.c{fill-rule:evenodd;}.b{fill:#fdd68b;}.c{fill:#f3a031;}</style></defs><g transform="translate(-0.05 94)"><path class="a" d="M42.929-27a9.614,9.614,0,0,0-1.76,1.708,49.329,49.329,0,0,0-3.956,4.457A56.817,56.817,0,0,0,29.944-9.2c-1.6,3.609-1.729,7.946-1.905,11.814s-.67,7.724-.569,11.6c.132,5.267.719,10.485.428,15.748a19.129,19.129,0,0,0-.176,2,14.384,14.384,0,0,1,.176,1.856,3.239,3.239,0,0,1-.366,1.848c.04.082.1.152-.529,1.383.631-.453.582-.905.732-1.6a71.257,71.257,0,0,1,2.4-7.419C32.789,20,35.043,11.909,37.111,3.732c1.76-6.93,2.871-13.97,4.631-20.888A45.955,45.955,0,0,0,43.18-24.5C43.22-24.974,43.6-26.764,42.929-27Z" transform="translate(36.987 91.95)"/><path class="a" d="M.313-27a.415.415,0,0,0-.2.047,10.5,10.5,0,0,0,.144,2.768,55.869,55.869,0,0,0,.827,6.712A67.736,67.736,0,0,0,5.551-2.352c1.875,4.17,5.442,7.746,8.585,10.971,3.156,3.247,6.057,6.742,9.413,9.762C28.1,22.5,32.962,26.217,37.208,30.673a21.525,21.525,0,0,0,1.561,1.73c.577.5,1.158.782,1.705,1.35.454.466,1.2,1.107,1.281,1.79.115.013.212.038.793,1.5.081-.85-.339-1.179-.819-1.858a83.488,83.488,0,0,1-4.5-7.848C32.4,18.792,27.21,10.5,21.831,2.318,17.267-4.637,12.109-11.17,7.57-18.121a55.046,55.046,0,0,0-5.158-7.028C2.077-25.524,1.012-27,.313-27Z" transform="translate(0 91.95)"/><path class="a" d="M85.54-59h0q-19.652,7.426-39.3,14.829c-6.506,2.451-13.016,4.92-19.607,7.12A137.516,137.516,0,0,1,12-33.036h0c.064,0,.127,0,.2,0a37.219,37.219,0,0,1,6.37,1.081c2.494.47,5.023.821,7.551,1.054q3.818.362,7.662.369a72.442,72.442,0,0,0,7.56-.387c8.593-.874,16.951-3.325,25.268-5.763a32.024,32.024,0,0,0,7.6-2.947,20.917,20.917,0,0,0,6.379-6.233A29.444,29.444,0,0,0,85.54-59Z" transform="translate(16.401 48.032)"/><path class="a" d="M81.563-50q-12.8,11.747-25.609,23.486c-4.247,3.889-8.493,7.778-12.869,11.534A124.879,124.879,0,0,1,33.056-7.341L33-7.3a.577.577,0,0,0,.073-.046h0a32.15,32.15,0,0,1,5.422-1.336c2.085-.48,4.165-1.047,6.2-1.692a69.119,69.119,0,0,0,11.784-4.96c6.357-3.434,12.041-7.918,17.686-12.382a26.933,26.933,0,0,0,4.916-4.592A16.42,16.42,0,0,0,82-38.894,21.858,21.858,0,0,0,81.563-50Z" transform="translate(45.218 60.386)"/><path class="a" d="M66.691-73c-2.787.435-4.386,3.405-5.809,6.03a21.512,21.512,0,0,1-1.681,2.8c-1.269,1.658-2.65,3.266-3.974,4.823a72.57,72.57,0,0,0-6.281,8.089c-5.668,8.9-9.685,18.532-13.959,30.262C27.184.4,19.377,25.733,20.577,51.4c.437,9.363,2.915,18.52,5.325,27.376,1.05,3.9,2.148,7.95,3.031,11.916l.742-.152c-.9-4-1.994-8.047-3.048-11.958-2.392-8.819-4.853-17.929-5.3-27.208C20.131,25.817,27.925.584,35.7-20.741c4.253-11.692,8.244-21.279,13.882-30.123a71.1,71.1,0,0,1,6.212-8c1.338-1.557,2.722-3.182,4.017-4.865A22.615,22.615,0,0,0,61.55-66.62c1.325-2.468,2.847-5.27,5.273-5.65Z" transform="translate(28.001 28.819)"/><path class="b" d="M28-93.284ZM39.714-94c-2.768,0-10.075.742-11.477.742-.151,0-.23-.009-.234-.026h0c1.206,9.671,6.511,18.831,10.2,27.459,3.325,7.745,6.356,15.635,9.082,23.6.892,2.6,2.06,5.486,1.281,8.158a4.977,4.977,0,0,1-.419,1.049,34.043,34.043,0,0,1,11.871-2.472c.821,0,1.658.038,2.517.124,5.117.494,10.083,2.025,15.074,3.286a150.054,150.054,0,0,0,16,3.112c1.687.23,6.26,1.39,9.426,1.39a4.893,4.893,0,0,0,2.68-.554c.666-.477.289-1.939.163-2.519C105-34.7,108.658-54.44,103.859-55.391a68.881,68.881,0,0,1-7.608-1.871c-4.288-1.385,4.56-4.655,4.727-6.385C96.347-67.824,92.118-72.5,87.44-76.7c-1.4-1.262-4.242-5.145-6.118-5.554a1.916,1.916,0,0,0-.436-.047c-2.286,0-3.957,3.934-6.356,4.071h-.08c-1.667,0-1.047-2.587-1.172-3.951-.138-1.7-.251-4.518-1.834-5.256-1.336-.622-3.656-.665-5.092-.921q-3.53-.678-7.051-1.33c-2.131-.4-4.48-.524-6.5-1.36-.636-.269-3.069-1.586-4.405-1.586a.98.98,0,0,0-.687.213c-.373.354,0,3.879.059,4.544a34.363,34.363,0,0,1-.142,6.33C44.776-84.222,44.5-92.491,40.7-93.919A3.7,3.7,0,0,0,39.714-94Z" transform="translate(38.359)"/><path class="a" d="M21.757-73.1a5.391,5.391,0,0,1,.527.957c.056.1.086.169.116.224a36.446,36.446,0,0,1,2.147,5.289c.9,2.63,1.95,5.276,2.948,7.825.981,2.473,1.993,5.031,2.875,7.58,2.421,7,4.255,12.886,5.793,18.5.159.606.3,1.207.454,1.825.1.423.2.86.313,1.3a7.316,7.316,0,0,1-.381-.707,3.28,3.28,0,0,0-.287-.559,73.621,73.621,0,0,0-4.427-6.729c-.8-1.109-1.607-2.265-2.391-3.417-1.067-1.6-2.005-3.333-2.905-5-.514-.94-1.007-1.867-1.538-2.782l-.2-.339c-1.41-2.435-3.017-5.192-3.488-7.961a42.589,42.589,0,0,1-.356-10.3,36.5,36.5,0,0,1,.583-4.374c.013-.127.043-.3.073-.483A5.931,5.931,0,0,1,21.757-73.1Zm-.141-.9a.537.537,0,0,0-.141.017l-.171.038-.086.157a4.845,4.845,0,0,0-.356,1.461c-.013.157-.047.313-.06.423a36.323,36.323,0,0,0-.6,4.459,43.008,43.008,0,0,0,.373,10.468c.493,2.913,2.134,5.725,3.57,8.219l.2.335c.527.915,1.024,1.842,1.521,2.769.913,1.677,1.864,3.422,2.948,5.052.78,1.169,1.607,2.325,2.391,3.434a77.976,77.976,0,0,1,4.4,6.652,3.925,3.925,0,0,1,.257.521,4.956,4.956,0,0,0,.48.872c.129.182.27.351.4.508a4.3,4.3,0,0,1,.471.618l.1.169a2.162,2.162,0,0,1,.381.957l-.03.267.159.068c.013.1.069.326.129.847l.184,1.5.54-1.419a1.6,1.6,0,0,0-.116-1.338c-.039-.085-.069-.169-.1-.254a28.979,28.979,0,0,1-1.123-3.87c-.159-.631-.3-1.249-.454-1.855-1.538-5.623-3.39-11.522-5.811-18.539-.9-2.562-1.907-5.137-2.888-7.614-1-2.545-2.035-5.175-2.935-7.792a36.409,36.409,0,0,0-2.19-5.391,1.162,1.162,0,0,1-.1-.195C22.679-73.081,22.237-74,21.616-74Z" transform="translate(27.459 27.447)"/><path class="a" d="M9.761-41.17h0a6.252,6.252,0,0,1,.731.767,2.455,2.455,0,0,0,.166.189,35.722,35.722,0,0,1,3.308,4.44c1.5,2.246,3.13,4.468,4.7,6.6,1.528,2.087,3.1,4.239,4.566,6.415,4.01,5.981,7.186,11.031,10.012,15.934.3.517.577,1.049.863,1.595.212.381.415.758.635,1.144a5.546,5.546,0,0,1-.535-.574c-.125-.164-.262-.312-.4-.463C31.974-7,29.948-8.7,27.989-10.335c-1.017-.857-2.067-1.746-3.088-2.632-1.391-1.238-2.7-2.64-3.956-3.972-.7-.767-1.407-1.513-2.138-2.238l-.262-.258c-1.918-1.947-4.11-4.153-5.239-6.629a40.942,40.942,0,0,1-2.885-9.56,35.265,35.265,0,0,1-.54-4.239c-.012-.119-.025-.283-.054-.459A8.073,8.073,0,0,1,9.761-41.17ZM9.554-42a.68.68,0,0,0-.291.066l-.154.082-.037.164a4.335,4.335,0,0,0,.037,1.459c.017.152.029.3.046.41A35.734,35.734,0,0,0,9.7-35.489a42.011,42.011,0,0,0,2.927,9.711c1.2,2.6,3.433,4.858,5.4,6.846l.249.262c.718.717,1.42,1.472,2.125,2.218C21.675-15.1,23-13.7,24.419-12.434c1.021.9,2.067,1.787,3.105,2.644a74.566,74.566,0,0,1,5.762,5.177,3.616,3.616,0,0,1,.361.418,4.859,4.859,0,0,0,.677.693,4.005,4.005,0,0,0,.494.373,4.24,4.24,0,0,1,.594.476l.137.135c.232.23.565.545.594.8l.042.258.166.029c.042.082.137.283.328.762L37.217.7,37.37-.759A1.568,1.568,0,0,0,36.939-2a1.985,1.985,0,0,1-.166-.2,28.9,28.9,0,0,1-2.009-3.361c-.291-.545-.581-1.09-.884-1.611-2.827-4.915-6.023-9.982-10.037-15.971-1.465-2.193-3.051-4.345-4.579-6.444-1.573-2.136-3.188-4.341-4.691-6.579a34.809,34.809,0,0,0-3.379-4.517,1.7,1.7,0,0,1-.137-.164C10.658-41.33,10.1-42,9.554-42Z" transform="translate(12.313 71.365)"/><path class="a" d="M67.182-44.787h0a18.759,18.759,0,0,1-2.823,7.447,12.724,12.724,0,0,1-3.715,3.826A18.314,18.314,0,0,1,56.162-31.7a82,82,0,0,1-15.113,3.63,41.874,41.874,0,0,1-4.507.237c-1.5,0-3.02-.073-4.553-.223-1.474-.15-2.991-.364-4.507-.665-.39-.059-.779-.164-1.169-.255-.209-.05-.419-.109-.641-.155,2.216-.56,4.566-1.271,6.71-2.027,3.963-1.407,7.946-2.979,11.783-4.509ZM68.075-46,43.906-36.406c-3.828,1.517-7.8,3.088-11.762,4.5a76.863,76.863,0,0,1-8.738,2.51L23-29.31l.071.4.126.378.318-.077a12.117,12.117,0,0,1,2.631.428c.406.091.808.178,1.211.25,1.533.305,3.075.533,4.566.683,1.558.155,3.1.228,4.633.228a40.968,40.968,0,0,0,4.578-.241,81.575,81.575,0,0,0,15.226-3.662A19.424,19.424,0,0,0,61-32.817a13.325,13.325,0,0,0,3.954-4.058A19.733,19.733,0,0,0,68-45.347Z" transform="translate(31.495 65.876)"/><path class="a" d="M56.924-22.638A15.438,15.438,0,0,1,57.36-15.4a11.53,11.53,0,0,1-1.843,4.67,19.237,19.237,0,0,1-3.326,3.388A89.865,89.865,0,0,1,39.922,2.012a47.883,47.883,0,0,1-8.245,3.851c-1.386.516-2.861.979-4.366,1.389-.376.107-.773.188-1.162.283-.211.041-.423.094-.634.152,1.771-1.4,3.622-2.966,5.266-4.494,3.047-2.831,6.022-5.8,8.9-8.657l17.2-17.149ZM57.246-24,39.149-5.964c-2.865,2.855-5.841,5.822-8.871,8.64a87.538,87.538,0,0,1-6.94,5.744L23,8.666l.228.287.266.258.266-.193a12.059,12.059,0,0,1,2.557-.787c.4-.082.811-.176,1.2-.287,1.517-.422,3-.885,4.421-1.4A50.381,50.381,0,0,0,40.3,2.623,90.249,90.249,0,0,0,52.685-6.808a20.607,20.607,0,0,0,3.453-3.511,12.307,12.307,0,0,0,1.953-4.957,16.3,16.3,0,0,0-.647-8.165Z" transform="translate(31.495 96.067)"/><path class="c" d="M30.627-92,30-91.592c8.2,12.754,13.539,28.583,15.877,47.035l.721-.1C44.25-63.22,38.861-79.149,30.627-92Z" transform="translate(41.104 2.745)"/><path class="c" d="M41.023-90a190.786,190.786,0,0,1-1.106,20.454C39.12-62.169,38.136-54.73,37-47.414l.716.109c1.118-7.312,2.106-14.78,2.919-22.156a190.848,190.848,0,0,0,1.106-19.924v-.6Z" transform="translate(50.71 5.492)"/><path class="c" d="M54.162-89l-.817.071c.306,2.687-.77,5.408-1.819,8.024-.32.793-.65,1.594-.924,2.387-1.355,3.881-2.854,7.774-4.442,11.575-1.374,3.271-2.836,6.555-4.4,9.756-.292.626-.738,1.36-1.2,2.136-1.262,2.095-2.683,4.465-2.451,6.38l.817-.083c-.214-1.694,1.137-3.952,2.344-5.938.478-.8.942-1.548,1.249-2.2,1.546-3.217,3.026-6.514,4.414-9.8,1.587-3.8,3.082-7.711,4.451-11.609.265-.772.571-1.536.9-2.353C53.359-83.354,54.487-86.146,54.162-89Z" transform="translate(52.2 6.862)"/><path class="c" d="M68.607-84l-.472.427a61.705,61.705,0,0,0-7.243,8.492,75.82,75.82,0,0,1-5.442,6.7c-2.578,2.737-5.319,5.487-7.976,8.134-1.951,1.948-3.973,3.97-5.866,5.927-.19.2-.362.388-.556.6a10.64,10.64,0,0,1-2,1.8c-.1.06-.221.1-.322.159A2.029,2.029,0,0,0,38-51.29l.569.5a1.657,1.657,0,0,1,.472-.272,3.743,3.743,0,0,0,.424-.2,10.577,10.577,0,0,0,2.158-1.948c.177-.2.366-.384.538-.569,1.894-1.966,3.92-3.987,5.871-5.931,2.653-2.664,5.394-5.4,7.989-8.147a77.766,77.766,0,0,0,5.5-6.776A62.215,62.215,0,0,1,68.5-82.869l.283.073a1.327,1.327,0,0,0,0-.6Z" transform="translate(52.08 13.726)"/><path class="c" d="M40.546-70,40-69.612a7.189,7.189,0,0,0,4.236.984,44.983,44.983,0,0,0,5.224-.43,36.051,36.051,0,0,1,3.733-.327c.087,0,.173,0,.26,0,4.912.1,9.864.386,14.737.814,4.418.386,8.871,1.056,11.563,3.309l.577-.365c-2.866-2.391-7.475-3.089-12.04-3.5-4.9-.43-9.881-.71-14.823-.814-.061,0-.121,0-.186,0a35.957,35.957,0,0,0-3.945.336,44.241,44.241,0,0,1-5.1.424A6.336,6.336,0,0,1,40.546-70Z" transform="translate(54.825 32.938)"/><path class="c" d="M63.2-74a43.19,43.19,0,0,0-4.566.245,76.338,76.338,0,0,0-14.724,3.337,1.373,1.373,0,0,0-.879.68.447.447,0,0,0,.174.478l.5-.355a.838.838,0,0,1,.469-.306,76.212,76.212,0,0,1,14.555-3.294,42.675,42.675,0,0,1,4.5-.242,31.931,31.931,0,0,1,10.308,1.573l.288-.487A32.739,32.739,0,0,0,63.2-74Z" transform="translate(58.962 27.449)"/></g></svg>