<svg xmlns="http://www.w3.org/2000/svg" width="127" height="322.823" viewBox="0 0 127 322.823"><defs><style>.a{fill:#e0e0e0;}.a,.b,.c,.d,.e,.f,.g,.h,.i,.j{fill-rule:evenodd;}.b{fill:#fff;}.c{fill:#be7a61;}.d{fill:#d76b71;}.e{fill:#d79377;}.f{fill:#534844;}.g{fill:rgba(255,255,255,0.56);}.h{fill:#b78876;}.i{fill:#253137;}.j{fill:#9f3d41;}.k{fill:#ddd1d1;}</style></defs><g transform="translate(-134.181 -1511.58)"><g transform="translate(129.38 1533.566) rotate(-3)"><path class="a" d="M17.669,3.524H0V0H17.669Z" transform="translate(40.428 237.704)"/><path class="b" d="M24,8.231H0V0H24Z" transform="translate(36.631 247.125)"/><path class="a" d="M18.947,3.53H0V0H18.947Z" transform="translate(44.21 273.007)"/><path class="b" d="M23.984,8.224H0V0H23.984Z" transform="translate(41.691 282.428)"/><path class="c" d="M7.184,0,13.8,5.214l4.017,20.377L0,18.242Z" transform="translate(78.314 58.839)"/><path class="d" d="M48.415,0,81.884,15.2c-1.743,2.6-6.049,3.549-9.8,3.549a19.737,19.737,0,0,1-2.981-.214c-4.211-.488-8.036-2.218-12.255-2.714a24.54,24.54,0,0,0-2.855-.17A25.087,25.087,0,0,0,41.7,18.9c-2.374,1.361-4.613,2.965-7.113,4.207a13.451,13.451,0,0,1-6.38,1.6,13.15,13.15,0,0,1-1.79-.118c-3.162-.739-5.536-2.965-7.91-4.94-2.287-1.923-4.9-3.631-7.744-3.631a7.619,7.619,0,0,0-.82.044A33.906,33.906,0,0,0,5.2,17.3a4.013,4.013,0,0,1-1.459.274A4.713,4.713,0,0,1,.585,16.312,3.934,3.934,0,0,1,.19,13.1,12.733,12.733,0,0,1,5.458,4.821Z" transform="translate(1.475 207.107)"/><path class="e" d="M22.226,0l30.3.244A.388.388,0,0,0,52.654.5l14.292.37L60.6,175.208,41.941,176.57l.135-57.618h0c-11.774,27.818-25.4,58.728-25.4,58.728L0,170.383S27.523,82.72,28.053,79.878C28.449,77.407,24.213,15.948,22.226,0Z" transform="translate(3.789 114.148)"/><path class="c" d="M13.366,0a.46.46,0,0,0,.124.375c0,.375.132.877.132,1.506a24.252,24.252,0,0,1,.132,5.252,38.6,38.6,0,0,1-1.173,7.762c-.388,1.506-.909,3-1.421,4.51-.652,1.5-1.173,3.132-1.817,4.63C6.873,30.417,4.536,36.178,2.85,40.306l-2.074,5A5.2,5.2,0,0,1,0,47.064a10.5,10.5,0,0,1,.645-1.873c.388-1.251,1.041-2.884,1.817-5.012,1.561-4.128,3.767-9.889,6.361-16.272a77.2,77.2,0,0,0,3.246-9.133,50.738,50.738,0,0,0,1.3-7.642c.124-1.753.124-3.5.124-5.252C13.366.629,13.234,0,13.366,0Z" transform="translate(44.217 189.455)"/><path class="c" d="M6.169,0a.015.015,0,0,1,.014.015C6.3.51.349,36.473.349,36.473c0-.5-.349-19.4-.349-19.4S5.75,0,6.169,0Z" transform="translate(45.48 217.698)"/><path class="f" d="M19.777,0l.135,1.938s16.719,3.157,12.74,4.369c-1.874.566-8.88.74-15.909.74-6.4,0-12.819-.138-15.416-.254H.135L0,.363Z" transform="translate(45.473 287.136)"/><path class="g" d="M.629,0A7.927,7.927,0,0,1,4.91,1.161,5.836,5.836,0,0,1,7.579,4.7H.143L0,.02Q.315,0,.629,0Z" transform="translate(45.473 288.305)"/><path class="g" d="M28.222,0S34.1,1.532,33.432,2.558c-.528.59-10.5.957-20.122.957C8.324,3.515,3.426,3.415,0,3.2V2.688l26.477-.26S27.013.13,28.222,0Z" transform="translate(45.473 290.667)"/><path class="h" d="M32.834,0,31.9.206,28.315.4a95.359,95.359,0,0,1-11.83.607c-2.331.109-4.551.158-6.579.158s-3.859-.049-5.386-.158H.931L0,.813H16.349C21,.607,25.26.4,28.315.206L31.9,0Z" transform="translate(45.473 293.025)"/><path class="i" d="M1.181,0h0A3.663,3.663,0,0,0,.008,2.348,2.567,2.567,0,0,1,1.181,0Z" transform="translate(72.076 290.659)"/><path class="i" d="M1.121,0C1.263,0,.979.287.7.672c-.243.253-.485.5-.636.5A.145.145,0,0,1,0,1.154,1.731,1.731,0,0,1,.56.58,2.8,2.8,0,0,1,1.121,0Z" transform="translate(65.683 289.482)"/><path class="i" d="M1.166,0a.107.107,0,0,1,.082.033,5.078,5.078,0,0,0-.5.678C.441.94.217,1.16.082,1.16A.107.107,0,0,1,0,1.128,5.572,5.572,0,0,0,.5.441C.807.221,1.024,0,1.166,0Z" transform="translate(64.427 289.49)"/><path class="i" d="M0,0C.443,0,.886.392,1.33.392H2.517a1.292,1.292,0,0,1-1.046.76C.957,1.152.425.711,0,0Z" transform="translate(63.166 287.153)"/><path class="i" d="M2.561.241a2.579,2.579,0,0,0-.671.094,2.159,2.159,0,0,0-1.083.859,2.108,2.108,0,0,0-.388.7h0a8.9,8.9,0,0,0,.929-.12c.4-.146.808-.283,1.349-.429.137-.146.4-.146.679-.292A.358.358,0,0,0,3.507.481,1.934,1.934,0,0,0,2.561.241ZM2.658,0a2.676,2.676,0,0,1,.986.189.9.9,0,0,1,.137.576c0,.146-.137.283-.275.429-.267.146-.533.292-.808.429a4.477,4.477,0,0,1-1.349.292,1.9,1.9,0,0,1-.622.1A2.449,2.449,0,0,1,.38,1.993h0c-.032.112-.073.232-.113.352V1.976h0C.186,1.958.1,1.941,0,1.916c0,0,.1,0,.275-.017h0c.137-.283.267-.567.4-.85A2.346,2.346,0,0,1,2.658,0Z" transform="translate(66.954 287.137)"/><path class="i" d="M.269,0c.269,0,.538.243.72.612a3.421,3.421,0,0,1,.269.863,2.758,2.758,0,0,1-.091.863V1.476C1.075,1.232.989.989.9.738.72.494.538.243.269.243.091.369.177.738.269.989s.269.487.36.738c.269.369.446.494.446.612a2.3,2.3,0,0,1-.446-.487,3.247,3.247,0,0,1-.452-.745A1.117,1.117,0,0,1,0,.612.749.749,0,0,1,.269,0Z" transform="translate(65.688 287.136)"/><path class="i" d="M1.574,0c2.712.111,5,1.53,5.714,3.5a1.647,1.647,0,0,1,.291.87v.327a2.372,2.372,0,0,0-.436-1.2A6.281,6.281,0,0,0,1.574.216,10.637,10.637,0,0,0,.411.163C.145.163,0,.163,0,.111H.428A3.57,3.57,0,0,1,1.574,0Z" transform="translate(45.473 288.312)"/><path class="i" d="M5.053,0A4.273,4.273,0,0,1,2.27,1.148,4.5,4.5,0,0,1,0,.488C0,.316.134.258.358.258c.45,0,1.286.23,2.228.23A6.536,6.536,0,0,0,5.053,0Z" transform="translate(55.578 291.864)"/><path class="i" d="M.053,0A1.177,1.177,0,0,1,.684.559c.409.288.2.567.2.567A.176.176,0,0,1,.8,1.168C.672,1.168.647.914.474.559.263.279-.145,0,.053,0Z" transform="translate(50.683 291.844)"/><path class="i" d="M.1,0C.18,0,.342.18.612.48c.356.192.54.6.356.6q0,.072-.065.072C.8,1.153.558.973.428.672c-.356-.4-.54-.6-.356-.6Q.072,0,.1,0Z" transform="translate(49.374 290.671)"/><path class="i" d="M.376,0A.568.568,0,0,1,.7.127c.276.308.56.905.418.905,0,.091-.025.127-.067.127-.1,0-.293-.2-.494-.416A.826.826,0,0,0,0,.435.4.4,0,0,1,.376,0Z" transform="translate(47.999 289.482)"/><path class="i" d="M.254,0C.343,0,.477.125.6.325c.253,0,.49.426.49.826H.343C.105.751-.148.325.105.325.105.125.164,0,.254,0Z" transform="translate(45.635 289.482)"/><path class="f" d="M3.042,0l17.87,7.811-.927,1.71s12.848,9.3,9.537,9.3a2.025,2.025,0,0,1-.277-.022C25.538,18.193,5.822,8.665,1.053,6.349L0,5.736Z" transform="translate(0.008 282.429)"/><path class="g" d="M2.622,0A6.48,6.48,0,0,1,6.551,2.887a4.679,4.679,0,0,1,.436,4.167L0,4.278Z" transform="translate(0 283.605)"/><path class="g" d="M.266,0,24.279,10.224s1.34-1.455,2.39-1.455a1.068,1.068,0,0,1,.307.042s4.594,3.642,3.512,4.113a.32.32,0,0,1-.129.021C28.324,12.945,8.534,4.7,0,.352Z" transform="translate(0.008 288.305)"/><path class="h" d="M0,0A.445.445,0,0,0,.264.132L1.2.519,4.4,2.2c2.669,1.3,6.408,3.108,10.683,5.053C19.225,9.2,23.092,10.882,25.9,12.176L29.1,13.6l-3.34-1.294c-2.8-1.17-6.672-2.852-10.811-4.79C10.675,5.573,6.944,3.627,4.267,2.333L1.063.651.264.264C.128.132,0,.132,0,0ZM30.036,13.99c.136,0,.136.132.272.132C30.171,14.121,30.171,14.121,30.036,13.99Z" transform="translate(0.008 287.129)"/><path class="i" d="M2.513,0A6.8,6.8,0,0,0,1.143.934,5.753,5.753,0,0,0,0,2.335,2.887,2.887,0,0,1,2.513,0Z" transform="translate(24.006 296.552)"/><path class="i" d="M1.182,0c0,.143-.2.42-.579.7C.365.933.128,1.16.047,1.16c-.017,0-.029-.008-.029-.034-.093,0,.2-.286.487-.563A2.663,2.663,0,0,1,1.182,0Z" transform="translate(20.291 293.021)"/><path class="i" d="M1.107,0c.035,0,.046.036.046.127.1,0-.19.29-.479.6C.4.941.225,1.159.11,1.159c-.046,0-.081-.036-.11-.127L.577.416C.848.217,1.027,0,1.107,0Z" transform="translate(18.953 291.854)"/><path class="i" d="M.017,0h0C.183.17.435.17.606.509a6.865,6.865,0,0,1,.589.658A1.035,1.035,0,0,1,.52.838C.183.509-.069.17.017,0Z" transform="translate(19.016 290.659)"/><path class="i" d="M.028,0C.82.39,1.6.787,2.394,1.177A2.935,2.935,0,0,1,.98.787C.349.522-.123.132.028,0Z" transform="translate(19.079 289.482)"/><path class="i" d="M1.852.152A4.205,4.205,0,0,0,.914.287,2.781,2.781,0,0,0,.3.6h0c.2.062.484.158.883.248.391,0,.781.1,1.3.1a2.191,2.191,0,0,0,.781.1c.258-.1.391-.191.258-.377a1.863,1.863,0,0,0-1.3-.473A1.494,1.494,0,0,0,1.852.152ZM1.922,0A2.928,2.928,0,0,1,3.789.664a.446.446,0,0,1-.133.377.626.626,0,0,1-.391.09.692.692,0,0,1-.258.045c-.18,0-.352-.045-.523-.045A7.4,7.4,0,0,1,1.047.946,5.139,5.139,0,0,1,.219.653h0C.141.715.07.783,0,.85A.519.519,0,0,1,.109.608h0C.07.6.039.58,0,.569,0,.552.016.546.039.546A.462.462,0,0,1,.148.563h0C.406.467.664.287.914.191A2.662,2.662,0,0,1,1.922,0Z" transform="translate(21.473 291.836)"/><path class="i" d="M1.133,0C1.816.221,2.28.563,2.28.9c.218.335,0,.557,0,.892a1.845,1.845,0,0,1-.915.563c.218-.228.451-.449.451-.671A.928.928,0,0,0,2.048.9,1.981,1.981,0,0,0,1.133.221C1.065.215,1,.208.929.208.451.208.451.583.451.785a.922.922,0,0,0,.232.785,6.6,6.6,0,0,0,.451.785C.9,2.126.451,1.9.451,1.683.218,1.348,0,1.12,0,.9A.63.63,0,0,1,.218.335C.218.114.683,0,1.133,0Z" transform="translate(20.224 290.659)"/><path class="i" d="M.431,0A3.8,3.8,0,0,1,1.44.464,5.27,5.27,0,0,1,4.751,5.872a1.964,1.964,0,0,0-.285.942c-.147.113-.147.232-.293.232a2.4,2.4,0,0,0,.293-1.174A5.163,5.163,0,0,0,1.44.584,5.585,5.585,0,0,0,0,0Z" transform="translate(2.535 283.605)"/><path class="i" d="M0,0C.121,0,1.131.622,2.519,1.236c1.259.622,2.519,1.118,2.391,1.118A14.84,14.84,0,0,1,0,0Z" transform="translate(10.113 290.659)"/><path class="i" d="M.176,0S1.018.255.6.519a.883.883,0,0,1-.421.643c-.4,0,0-.255,0-.643C.176.255-.22,0,.176,0Z" transform="translate(5.297 288.313)"/><path class="i" d="M.169,0C.262,0,.5.27.764.531a1,1,0,0,1,.316.646A1.368,1.368,0,0,1,.132.694c0-.328-.3-.646,0-.646A.044.044,0,0,1,.169,0Z" transform="translate(5.236 287.129)"/><path class="i" d="M0,0A1.122,1.122,0,0,1,.888.366a1.153,1.153,0,0,1,.364.744.129.129,0,0,1-.1.044c-.15,0-.3-.3-.439-.6C.353.366,0,.178,0,0Z" transform="translate(3.8 284.786)"/><path class="i" d="M.2,0C.308,0,.531.2.754.416a.97.97,0,0,1,.3.616c0,.091-.019.127-.056.127C.884,1.159.661.941.438.724.123.416-.175.127.123.127.123.036.16,0,.2,0Z" transform="translate(2.719 283.616)"/><path class="j" d="M39.777,0c.476,0,.943.015,1.419.052l16.821.984a6.927,6.927,0,0,1,1.2-.081c2.735,0,9.893.969,19.453,9.6l8.474,7.294L76.423,36.886l-.531,8.53L68.211,68.9l2.116,10.387c.8,7.908,12.192,98.391,10.6,99.752a.92.92,0,0,1-.618.155c-3.361,0-17.883-6.214-26.016-6.214a7.025,7.025,0,0,0-4.36,1.11c-4.431,3.47-12.4,5.955-18.834,5.955a17.746,17.746,0,0,1-5-.636c-4.891-1.494-11.653-8.729-18.882-8.729A11,11,0,0,0,0,173.472S3.179,93.25,23.844,65.811c8.339-13.353,10.464-11.866,7.681-19.656L23.313,20.817l3.44-15.95A19.536,19.536,0,0,1,39.777,0Z" transform="translate(2.526 43.534)"/><path class="j" d="M15.591,0,30.53,24.44l-20.319,8.5S1.594,21.321.249,15.693C-2.3,4.316,15.591,0,15.591,0Z" transform="translate(19.996 44.711)"/><path class="b" d="M24.44,3.953,24.518,4v.022h0C24.495,4,24.463,3.975,24.44,3.953Zm.078.066h0c.047.037.094.066.133.1C24.651,4.123,24.534,4.123,24.518,4.019Zm4.428,32.692a.1.1,0,0,1-.055.1h0A.137.137,0,0,0,28.946,36.711ZM13.55,0a16.727,16.727,0,0,1,8.232,2.15,23.04,23.04,0,0,1,2.658,1.8h0l-.569-.325c-.655-.369-1.434-.864-2.214-1.234A18.984,18.984,0,0,0,12.981.281c-.234,0-.468.007-.7.015A14.028,14.028,0,0,0,6.028,2.15,11.091,11.091,0,0,0,1.2,7.58a7.5,7.5,0,0,0-.647,3.7,10.806,10.806,0,0,0,1.169,3.953C3.16,17.576,5.373,19.8,6.808,22.393a10.7,10.7,0,0,1,1.434,4.322,24.924,24.924,0,0,1,0,4.315,27.675,27.675,0,0,0,0,8.023,11.248,11.248,0,0,0,1.434,3.458,5.808,5.808,0,0,0,2.6,2.349,5.659,5.659,0,0,0,2.65.65,5.32,5.32,0,0,0,.6-.037A8.106,8.106,0,0,0,18.4,44.365a27.811,27.811,0,0,0,4.3-3.332q1.567-1.3,3.126-2.593a23.435,23.435,0,0,1,2.346-1.359c.133-.126.39-.126.655-.244a.156.156,0,0,0,.07-.022h0a3.915,3.915,0,0,1-.725.392,21.021,21.021,0,0,0-2.214,1.359c-1.045.864-2.081,1.729-3.126,2.711a22.228,22.228,0,0,1-4.17,3.458,11.313,11.313,0,0,1-3.126,1.108,7.107,7.107,0,0,1-.8.044,5.329,5.329,0,0,1-2.713-.657,7.487,7.487,0,0,1-2.736-2.468A12.656,12.656,0,0,1,7.72,39.179a28.543,28.543,0,0,1,0-8.149,13.414,13.414,0,0,0-1.3-8.393c-1.567-2.593-3.648-4.691-5.082-7.285a8.92,8.92,0,0,1-1.3-3.945A8.152,8.152,0,0,1,.689,7.455,12.852,12.852,0,0,1,5.763,1.78,13.456,13.456,0,0,1,12.28.052C12.7.015,13.129,0,13.55,0Z" transform="translate(46.835 112.964)"/><path class="b" d="M11.527,0a21.3,21.3,0,0,1,3.009.611A18.274,18.274,0,0,1,18.987,2.7a13.9,13.9,0,0,1,6.285,11.8,61.681,61.681,0,0,0,.525,8.485,10.8,10.8,0,0,0,1.959,4.055,24.147,24.147,0,0,0,3.8,3.326,31.847,31.847,0,0,1,3.926,3.319A10.674,10.674,0,0,1,38.1,38.24a14.135,14.135,0,0,1-.784,10.082,16.9,16.9,0,0,1-6.543,7.131,29.562,29.562,0,0,1-8.385,3.569A42.742,42.742,0,0,1,14.536,60a90.466,90.466,0,0,1-11.527-.736A28.759,28.759,0,0,1,0,58.772H0l3.142.25a73.984,73.984,0,0,0,9.435.64c.658,0,1.309-.007,1.959-.029a40.82,40.82,0,0,0,7.726-1.1,24.272,24.272,0,0,0,8.244-3.444,16.647,16.647,0,0,0,6.285-7.006,14.6,14.6,0,0,0,.917-9.714,11.411,11.411,0,0,0-2.617-4.305,24.332,24.332,0,0,0-3.926-3.319,24.106,24.106,0,0,1-3.8-3.319,11.179,11.179,0,0,1-2.092-4.305,46.835,46.835,0,0,1-.392-8.61A13.652,13.652,0,0,0,18.721,2.951a16.369,16.369,0,0,0-4.185-2.1A16.98,16.98,0,0,0,10.344,0Z" transform="translate(6.316 132.977)"/><path class="b" d="M21.511,0A13.5,13.5,0,0,1,23.68.174,11.7,11.7,0,0,1,27.87,1.991c.258.247.65.61.908.85a1.386,1.386,0,0,0,.266.363,7.477,7.477,0,0,1-1.308-.966,9.688,9.688,0,0,0-4.189-1.7A17.246,17.246,0,0,0,21.589.421a14.219,14.219,0,0,0-4.581.719A18.543,18.543,0,0,0,10.07,5.152a28.754,28.754,0,0,0-5.1,5.951c-1.316,1.94-2.49,3.88-3.406,5.457A10.9,10.9,0,0,0,.517,18.624c-.258.734-.392,1.337,0,1.7a2.376,2.376,0,0,0,.916.61,1.818,1.818,0,0,1,.4.24c-.133,0-.266-.116-.4-.116a5.343,5.343,0,0,1-1.175-.61A2.055,2.055,0,0,1,0,19.6c0-.363.125-.727.125-.974a12.812,12.812,0,0,1,1.182-2.3c.916-1.577,1.958-3.4,3.265-5.464A29.077,29.077,0,0,1,9.812,4.789,19.244,19.244,0,0,1,16.875.661,17.666,17.666,0,0,1,21.511,0Z" transform="translate(53.06 195.339)"/><path class="b" d="M9.291,0a7.208,7.208,0,0,1,.532,2.421A8.143,8.143,0,0,1,8.348,8.235a8.4,8.4,0,0,1-2.965,2.059,9.136,9.136,0,0,1-2.184.29,5.581,5.581,0,0,1-.782-.051A3.787,3.787,0,0,1,.532,9.685C.129,9.446,0,9.322,0,9.2H0a9.931,9.931,0,0,0,2.417.971,5.931,5.931,0,0,0,.709.043,5.757,5.757,0,0,0,2.119-.406A4.951,4.951,0,0,0,7.808,7.873,8,8,0,0,0,9.42,2.421C9.42.964,9.154,0,9.291,0Z" transform="translate(31.586 92.966)"/><path class="b" d="M1.315,0a1.56,1.56,0,0,1,.447.059A6.389,6.389,0,0,1,6,1.778a4.792,4.792,0,0,1,1.315,2.7,4.292,4.292,0,0,1-.876,3.2,8.2,8.2,0,0,0-1.613,3.064,2.132,2.132,0,0,0,.3,1.6A4.8,4.8,0,0,0,6.442,13.8a19.279,19.279,0,0,1,2.787,3.071,7.563,7.563,0,0,1,.876,3.438A8.335,8.335,0,0,1,9.08,23.5a6.933,6.933,0,0,1-2.34,2.087,8.737,8.737,0,0,1-4.4,1.477,4.7,4.7,0,0,1-1.315-.125H.587c0-.059.149-.059.438-.059a10.91,10.91,0,0,0,1.315-.066,10.787,10.787,0,0,0,4.251-1.469,6.343,6.343,0,0,0,2.927-5.033,6.22,6.22,0,0,0-.876-3.2A13.888,13.888,0,0,0,6,14.172a4.654,4.654,0,0,1-1.315-1.594,2.356,2.356,0,0,1-.438-1.962A14.18,14.18,0,0,1,6,7.42a4.379,4.379,0,0,0-.289-5.4A6.757,6.757,0,0,0,1.762.176H0C.149.176.289.059.438.059.736.059,1.025,0,1.315,0Z" transform="translate(29.052 47.064)"/><path class="b" d="M11.787,0a.5.5,0,0,0,.4.126A7.2,7.2,0,0,0,10.6.244,6.024,6.024,0,0,0,6.74,2.226,5.57,5.57,0,0,0,5.547,4.94,14.285,14.285,0,0,0,5.81,8.276a26.9,26.9,0,0,1,.668,3.713,6.242,6.242,0,0,1-.668,4.075,13.439,13.439,0,0,1-3.053,2.966,5.076,5.076,0,0,0-2,2.966,5.411,5.411,0,0,0,1.6,5.687,7.422,7.422,0,0,0,4.118,1.6A7.408,7.408,0,0,0,8.2,29.161h0a.5.5,0,0,1-.4.126,4.761,4.761,0,0,1-1.328.126,6.527,6.527,0,0,1-4.253-1.487,5.652,5.652,0,0,1-2-6.057,5.866,5.866,0,0,1,2.13-3.21,16.28,16.28,0,0,0,3.053-2.84,6.363,6.363,0,0,0,.533-3.831,35.678,35.678,0,0,0-.668-3.713A9.978,9.978,0,0,1,5.15,4.822,4.393,4.393,0,0,1,6.477,2.1,5.469,5.469,0,0,1,10.46,0Z" transform="translate(69.911 54.132)"/><path class="e" d="M16.909,0A29.219,29.219,0,0,1,30.3,3.212s.407,16.229-.375,23.685-9.678,8.84-9.678,8.84S19.59,43.809,19.2,45.887L0,45.639.915,4.683,2.22,3.951A28.942,28.942,0,0,1,16.909,0Z" transform="translate(42.954 0)"/><path class="i" d="M.233,0h0A34.983,34.983,0,0,1,1.84,5.614a16.743,16.743,0,0,1,.57,2.24,1.859,1.859,0,0,1,0,1.127c0,.246-.227.373-.46.373H1.606a2.287,2.287,0,0,1-.5.052A4.167,4.167,0,0,1,0,9.228a3.429,3.429,0,0,1,1.606-.246c.233,0,.46,0,.46-.254a1.688,1.688,0,0,0-.117-.747L1.38,5.734A31.022,31.022,0,0,1,.233,0Z" transform="translate(64.42 14.122)"/><path class="c" d="M0,0A19.175,19.175,0,0,0,10.105,3.828L9.972,5.876C1.837,5.746,0,0,0,0Z" transform="translate(53.052 31.774)"/><path class="i" d="M.667,0C1,0,1.253.467,1.253,1.252c0,.616-.251,1.093-.667,1.093C.251,2.344,0,1.719,0,1.093S.331,0,.667,0Z" transform="translate(58.109 14.123)"/><path class="i" d="M1.833,0A2.092,2.092,0,0,1,3.3.512c.365.252.482.382.482.5-.007.015-.037.023-.066.023a8.986,8.986,0,0,0-1.884-.4,5.669,5.669,0,0,0-1.782.527A.06.06,0,0,1,0,1.146,1.15,1.15,0,0,1,.372.512,3.265,3.265,0,0,1,1.833,0Z" transform="translate(56.841 12.945)"/><path class="i" d="M.561,0a.248.248,0,0,1,.11.029c.331,0,.581.49.581,1.147,0,.588-.2,1.167-.541,1.167a.291.291,0,0,1-.125-.02C.251,2.324,0,1.834,0,1.177,0,.588.266,0,.561,0Z" transform="translate(69.477 14.114)"/><path class="i" d="M1.82,0A3.2,3.2,0,0,1,3.234.5c.353.26.474.512.353.512a.067.067,0,0,1-.057.023A6.742,6.742,0,0,0,1.82.634a5.236,5.236,0,0,0-1.725.527.1.1,0,0,1-.049-.015c-.12-.13,0-.26.353-.512A2.464,2.464,0,0,1,1.82,0Z" transform="translate(68.284 12.945)"/><path class="c" d="M1.435,0A1.859,1.859,0,0,1,2.479.281c.133.191.133.473.257.569A.924.924,0,0,0,3.064.9.9.9,0,0,1,3.392.94a.527.527,0,0,1,.39.473.887.887,0,0,1-.133.563v.1c0,.1,0,.186-.125.186s-.265.1-.4.1a7.2,7.2,0,0,1-1.427-.1A2.656,2.656,0,0,1,.522,1.976,1.091,1.091,0,0,1,0,1.222,1.092,1.092,0,0,1,.522.473,4.331,4.331,0,0,1,1.435,0Z" transform="translate(58.104 23.528)"/><path class="c" d="M0,0,3.782,2.347A4.579,4.579,0,0,1,0,0Z" transform="translate(59.374 23.535)"/><path class="i" d="M.021,0A13.367,13.367,0,0,0,1.654,2.144,15.984,15.984,0,0,0,3.782,3.521a2.3,2.3,0,0,1-.247.009A3.9,3.9,0,0,1,0,.018C.007.009.014,0,.021,0Z" transform="translate(59.374 22.352)"/><path class="c" d="M1.388,0A3.407,3.407,0,0,1,3.78,1.154L0,.385A2.712,2.712,0,0,1,1.388,0Z" transform="translate(68.209 10.606)"/><path class="i" d="M1.546,0a2.679,2.679,0,0,1,.349.024C3.148.151,3.78.684,3.62.954c-.085.151-.4.215-.83.215a7.7,7.7,0,0,1-1.056-.087C.943,1.081.16.954,0,.684,0,.445.622,0,1.546,0Z" transform="translate(68.209 10.584)"/><path class="c" d="M2.95,0A3.687,3.687,0,0,1,5.034.643L0,1.177A4.622,4.622,0,0,1,2.95,0Z" transform="translate(55.587 11.761)"/><path class="i" d="M2.786,0C4.06,0,4.916.557,4.773.79c0,.263-1.043.263-2.379.263-.793,0-1.524.116-1.96.116-.223,0-.374-.031-.419-.116C-.137.79.906.015,2.394.015,2.528.008,2.652,0,2.786,0Z" transform="translate(55.715 10.592)"/><path class="e" d="M9.252,0,19.833,3.6s5.413,18.756,2.588,18.756a1.086,1.086,0,0,1-.475-.134C18.251,20.108,0,6.574,0,6.574Z" transform="translate(42.955 38.834)"/><path class="e" d="M75.414,0a1.326,1.326,0,0,1,.8.265c.8.617,1.459,3.2.8,6.383v.125c-.159,1,.088,1.374.566,1.374,1.092,0,3.381-1.991,4.5-2.85,1.443-1.2,6.1-4.789,7.017-4.789a.367.367,0,0,1,.04.007c1.068.242,1.068,1.352-.4,2.578-1.595,1.227-5.861,5.149-5.063,5.891a.239.239,0,0,0,.167.059c1.276,0,7.958-5.832,7.958-5.832s.917-.984,1.69-.984a.769.769,0,0,1,.582.25c1.595,1.352-6.929,7.735-7.734,8.227a.5.5,0,0,0,.351.9.8.8,0,0,0,.455-.162c.47-.331,5.948-5.259,8.245-5.259a.936.936,0,0,1,.678.228c1.2,1.1-6.929,5.157-7.591,7.243-.1.287-.04.411.136.411.9,0,4.928-3.254,6.49-3.254a.623.623,0,0,1,.431.14c.4.492.67.859-3.6,3.562-3.6,2.086-7.192,4.047-10.924,5.766l-.534.125S51.142,40,30.4,40c-6.227,0-11.681-1.763-15.341-6.354A167.158,167.158,0,0,1,0,11.929L18.786,3.7S31.28,21.868,34.318,21.868h.056c15.851-1.1,31.575-8.587,37.173-11.415.4-.61.933-1.469,1.595-2.578a9.975,9.975,0,0,0,.933-2.821,12.229,12.229,0,0,0,.271-3.188c0-.125,0-.25-.136-.25V1.124A1.152,1.152,0,0,1,75.414,0Z" transform="translate(30.315 64.723)"/></g><g transform="translate(154.704 1524.642) rotate(-16)"><g transform="translate(0 0)"><path class="k" d="M37.513,4.658S25.725-6.9,11.79,6.4c0,0-7.5,6.335-5.969,25.18,0,0-1.072,9.5-5.821,9.982,0,0,5.053.158,6.892-3.013,0,0,.153,6.333-6.126,7.92,0,0,6.279-.475,8.424-4.118,0,0,.613,3.642-3.981,4.909,0,0,9.034.317,12.863-3.96,0,0-5.053-7.289-3.369-11.247,0,0,4.289-10.926,11.027-12.352,0,0-2.6,4.117-4.9,5.384,0,0,11.179-1.74,16.388-5.7,0,0,.916-.16.916,1.741,0,0,.764,6.176,2.757,8.711,0,0,.462,14.885-9.189,18.368,0,0,14.241-.947,15.62-18.214C47.316,30,48.848,5.292,37.513,4.658Z"/></g></g></g></svg>